<svg width="24" height="24" viewBox="0 0 24 24" fill="none" xmlns="http://www.w3.org/2000/svg">
<path d="M11.1781 24V21.9452C8.6758 21.6895 6.59361 20.7306 4.93151 19.0685C3.26941 17.4064 2.3105 15.3242 2.05479 12.8219H0V11.1781H2.05479C2.3105 8.6758 3.26941 6.59361 4.93151 4.93151C6.59361 3.26941 8.6758 2.3105 11.1781 2.05479V0H12.8219V2.05479C15.3242 2.3105 17.4064 3.26941 19.0685 4.93151C20.7306 6.59361 21.6895 8.6758 21.9452 11.1781H24V12.8219H21.9452C21.6895 15.3242 20.7306 17.4064 19.0685 19.0685C17.4064 20.7306 15.3242 21.6895 12.8219 21.9452V24H11.1781ZM12 20.3288C14.2831 20.3288 16.242 19.5114 17.8767 17.8767C19.5114 16.242 20.3288 14.2831 20.3288 12C20.3288 9.71689 19.5114 7.75799 17.8767 6.12329C16.242 4.48858 14.2831 3.67123 12 3.67123C9.71689 3.67123 7.75799 4.48858 6.12329 6.12329C4.48858 7.75799 3.67123 9.71689 3.67123 12C3.67123 14.2831 4.48858 16.242 6.12329 17.8767C7.75799 19.5114 9.71689 20.3288 12 20.3288ZM12 16.1096C10.8493 16.1096 9.87671 15.7123 9.08219 14.9178C8.28767 14.1233 7.89041 13.1507 7.89041 12C7.89041 10.8493 8.28767 9.87671 9.08219 9.08219C9.87671 8.28767 10.8493 7.89041 12 7.89041C13.1507 7.89041 14.1233 8.28767 14.9178 9.08219C15.7123 9.87671 16.1096 10.8493 16.1096 12C16.1096 13.1507 15.7123 14.1233 14.9178 14.9178C14.1233 15.7123 13.1507 16.1096 12 16.1096ZM12 14.4658C12.6941 14.4658 13.2785 14.2283 13.7534 13.7534C14.2283 13.2785 14.4658 12.6941 14.4658 12C14.4658 11.3059 14.2283 10.7215 13.7534 10.2466C13.2785 9.77169 12.6941 9.53425 12 9.53425C11.3059 9.53425 10.7215 9.77169 10.2466 10.2466C9.77169 10.7215 9.53425 11.3059 9.53425 12C9.53425 12.6941 9.77169 13.2785 10.2466 13.7534C10.7215 14.2283 11.3059 14.4658 12 14.4658Z" fill="white"/>
</svg>
