<svg width="20" height="27" viewBox="0 0 20 27" fill="none" xmlns="http://www.w3.org/2000/svg">
<path d="M18 26.75V16.25H14.1667V6.24219C14.1667 4.51406 14.7 3.125 15.7667 2.075C16.8333 1.025 18.2444 0.5 20 0.5V26.75H18ZM4.16667 26.75V14.675C3.01111 14.4344 2.02778 13.8602 1.21667 12.9523C0.405555 12.0445 0 10.9563 0 9.6875V0.5H2V9.6875H4.16667V0.5H6.16667V9.6875H8.33333V0.5H10.3333V9.6875C10.3333 10.9563 9.92778 12.0445 9.11667 12.9523C8.30556 13.8602 7.32222 14.4344 6.16667 14.675V26.75H4.16667Z" fill="white"/>
</svg>
