<svg width="15" height="16" viewBox="0 0 15 16" fill="none" xmlns="http://www.w3.org/2000/svg">
<path d="M6.69375 14.3563V12.8187C6.25625 12.8187 5.8875 12.6562 5.5875 12.3312C5.2875 12.0062 5.1375 11.625 5.1375 11.1875V10.3625L1.29375 6.51875C1.23125 6.76875 1.1875 7.01562 1.1625 7.25937C1.1375 7.50312 1.125 7.75 1.125 8C1.125 9.625 1.65313 11.0437 2.70938 12.2562C3.76563 13.4687 5.09375 14.1688 6.69375 14.3563ZM12.2062 12.3312C12.7562 11.7312 13.1719 11.0594 13.4531 10.3156C13.7344 9.57187 13.875 8.8 13.875 8C13.875 6.675 13.5125 5.47188 12.7875 4.39062C12.0625 3.30937 11.0938 2.51875 9.88125 2.01875V2.35625C9.88125 2.79375 9.73125 3.175 9.43125 3.5C9.13125 3.825 8.7625 3.9875 8.325 3.9875H6.69375V5.61875C6.69375 5.83125 6.60937 6.00625 6.44062 6.14375C6.27187 6.28125 6.08125 6.35 5.86875 6.35H4.3125V8H9.15C9.3625 8 9.5375 8.08125 9.675 8.24375C9.8125 8.40625 9.88125 8.59375 9.88125 8.80625V11.1875H10.6875C11.05 11.1875 11.3687 11.2937 11.6437 11.5062C11.9187 11.7187 12.1062 11.9937 12.2062 12.3312ZM7.5 15.5C6.4625 15.5 5.4875 15.3031 4.575 14.9094C3.6625 14.5156 2.86875 13.9813 2.19375 13.3063C1.51875 12.6313 0.984375 11.8375 0.590625 10.925C0.196875 10.0125 0 9.0375 0 8C0 6.9625 0.196875 5.9875 0.590625 5.075C0.984375 4.1625 1.51875 3.36875 2.19375 2.69375C2.86875 2.01875 3.6625 1.48437 4.575 1.09062C5.4875 0.696875 6.4625 0.5 7.5 0.5C8.5375 0.5 9.5125 0.696875 10.425 1.09062C11.3375 1.48437 12.1313 2.01875 12.8063 2.69375C13.4813 3.36875 14.0156 4.1625 14.4094 5.075C14.8031 5.9875 15 6.9625 15 8C15 9.0375 14.8031 10.0125 14.4094 10.925C14.0156 11.8375 13.4813 12.6313 12.8063 13.3063C12.1313 13.9813 11.3375 14.5156 10.425 14.9094C9.5125 15.3031 8.5375 15.5 7.5 15.5Z" fill="black"/>
</svg>
