<svg width="16" height="22" viewBox="0 0 16 22" fill="none" xmlns="http://www.w3.org/2000/svg">
<path d="M0 22V0H8.86154C10.8718 0 12.5641 0.682408 13.9385 2.04722C15.3128 3.41204 16 5.09259 16 7.08889C16 9.08519 15.3128 10.7657 13.9385 12.1306C12.5641 13.4954 10.8718 14.1778 8.86154 14.1778H3.69231V22H0ZM3.69231 10.5111H8.86154C9.84615 10.5111 10.6667 10.1852 11.3231 9.53333C11.9795 8.88148 12.3077 8.06667 12.3077 7.08889C12.3077 6.11111 11.9795 5.2963 11.3231 4.64444C10.6667 3.99259 9.84615 3.66667 8.86154 3.66667H3.69231V10.5111Z" fill="white"/>
</svg>
