<svg width="18" height="18" viewBox="0 0 18 18" fill="none" xmlns="http://www.w3.org/2000/svg">
<path d="M16.8751 18C14.8417 18 12.8209 17.5 10.8126 16.5C8.80423 15.5 7.00006 14.2 5.40006 12.6C3.80006 11 2.50006 9.19583 1.50006 7.1875C0.500061 5.17917 6.10352e-05 3.15833 6.10352e-05 1.125C6.10352e-05 0.808333 0.108394 0.541667 0.325061 0.325C0.541728 0.108333 0.808394 0 1.12506 0H4.62506C4.85839 0 5.06256 0.0791666 5.23756 0.2375C5.41256 0.395833 5.52506 0.608333 5.57506 0.875L6.25006 4.025C6.28339 4.25833 6.27923 4.47083 6.23756 4.6625C6.19589 4.85417 6.10839 5.01667 5.97506 5.15L3.47506 7.675C4.40839 9.225 5.45423 10.575 6.61256 11.725C7.77089 12.875 9.0834 13.85 10.5501 14.65L12.9251 12.2C13.0917 12.0167 13.2834 11.8875 13.5001 11.8125C13.7167 11.7375 13.9334 11.725 14.1501 11.775L17.1251 12.425C17.3751 12.475 17.5834 12.6 17.7501 12.8C17.9167 13 18.0001 13.2333 18.0001 13.5V16.875C18.0001 17.1917 17.8917 17.4583 17.6751 17.675C17.4584 17.8917 17.1917 18 16.8751 18ZM2.72506 6.3L4.75006 4.25L4.17506 1.5H1.50006C1.50006 2.15 1.60006 2.8625 1.80006 3.6375C2.00006 4.4125 2.30839 5.3 2.72506 6.3ZM16.5001 16.5V13.825L13.9251 13.3L11.9501 15.375C12.6334 15.6917 13.3751 15.95 14.1751 16.15C14.9751 16.35 15.7501 16.4667 16.5001 16.5Z" fill="black"/>
</svg>
