<svg width="25" height="32" viewBox="0 0 25 32" fill="none" xmlns="http://www.w3.org/2000/svg">
<g filter="url(#filter0_d_79_1128)">
<path d="M12.1 17.46C14.18 15.78 15.75 14.165 16.81 12.615C17.87 11.065 18.4 9.62 18.4 8.28C18.4 7.1 18.185 6.1 17.755 5.28C17.325 4.46 16.795 3.79 16.165 3.27C15.535 2.75 14.85 2.375 14.11 2.145C13.37 1.915 12.7 1.8 12.1 1.8C11.5 1.8 10.83 1.915 10.09 2.145C9.35 2.375 8.665 2.75 8.035 3.27C7.405 3.79 6.875 4.46 6.445 5.28C6.015 6.1 5.8 7.1 5.8 8.28C5.8 9.62 6.33 11.065 7.39 12.615C8.45 14.165 10.02 15.78 12.1 17.46ZM12.1 19.74C9.36 17.68 7.325 15.71 5.995 13.83C4.665 11.95 4 10.1 4 8.28C4 6.92 4.245 5.725 4.735 4.695C5.225 3.665 5.86 2.8 6.64 2.1C7.42 1.4 8.29 0.875 9.25 0.525C10.21 0.175 11.16 0 12.1 0C13.04 0 13.99 0.175 14.95 0.525C15.91 0.875 16.78 1.4 17.56 2.1C18.34 2.8 18.975 3.665 19.465 4.695C19.955 5.725 20.2 6.92 20.2 8.28C20.2 10.1 19.535 11.95 18.205 13.83C16.875 15.71 14.84 17.68 12.1 19.74ZM12.1 10.2C12.68 10.2 13.175 9.995 13.585 9.585C13.995 9.175 14.2 8.68 14.2 8.1C14.2 7.52 13.995 7.025 13.585 6.615C13.175 6.205 12.68 6 12.1 6C11.52 6 11.025 6.205 10.615 6.615C10.205 7.025 10 7.52 10 8.1C10 8.68 10.205 9.175 10.615 9.585C11.025 9.995 11.52 10.2 12.1 10.2ZM4 24V22.2H20.2V24H4Z" fill="white"/>
</g>
<defs>
<filter id="filter0_d_79_1128" x="0" y="0" width="24.2" height="32" filterUnits="userSpaceOnUse" color-interpolation-filters="sRGB">
<feFlood flood-opacity="0" result="BackgroundImageFix"/>
<feColorMatrix in="SourceAlpha" type="matrix" values="0 0 0 0 0 0 0 0 0 0 0 0 0 0 0 0 0 0 127 0" result="hardAlpha"/>
<feOffset dy="4"/>
<feGaussianBlur stdDeviation="2"/>
<feComposite in2="hardAlpha" operator="out"/>
<feColorMatrix type="matrix" values="0 0 0 0 0 0 0 0 0 0 0 0 0 0 0 0 0 0 0.25 0"/>
<feBlend mode="normal" in2="BackgroundImageFix" result="effect1_dropShadow_79_1128"/>
<feBlend mode="normal" in="SourceGraphic" in2="effect1_dropShadow_79_1128" result="shape"/>
</filter>
</defs>
</svg>
