<svg width="22" height="28" viewBox="0 0 22 28" fill="none" xmlns="http://www.w3.org/2000/svg">
<path d="M2.40625 27.5V25.4375H9.96875V19.25H6.875C4.97292 19.25 3.35156 18.5797 2.01094 17.2391C0.670313 15.8984 0 14.2771 0 12.375C0 11 0.378125 9.73385 1.13437 8.57656C1.89062 7.41927 2.91042 6.57708 4.19375 6.05C4.4 4.33125 5.15052 2.89323 6.44531 1.73594C7.7401 0.578646 9.25833 0 11 0C12.7417 0 14.2599 0.578646 15.5547 1.73594C16.8495 2.89323 17.6 4.33125 17.8063 6.05C19.0896 6.57708 20.1094 7.41927 20.8656 8.57656C21.6219 9.73385 22 11 22 12.375C22 14.2771 21.3297 15.8984 19.9891 17.2391C18.6484 18.5797 17.0271 19.25 15.125 19.25H12.0312V25.4375H19.9375V27.5H2.40625ZM6.875 17.1875H15.125C16.4542 17.1875 17.5885 16.7177 18.5281 15.7781C19.4677 14.8385 19.9375 13.7042 19.9375 12.375C19.9375 11.4125 19.6625 10.5359 19.1125 9.74531C18.5625 8.95469 17.8521 8.36458 16.9813 7.975L15.8813 7.49375L15.7437 6.29062C15.5833 5.07604 15.0563 4.06771 14.1625 3.26562C13.2688 2.46354 12.2146 2.0625 11 2.0625C9.78542 2.0625 8.73125 2.46354 7.8375 3.26562C6.94375 4.06771 6.41667 5.07604 6.25625 6.29062L6.11875 7.49375L5.01875 7.975C4.14792 8.36458 3.4375 8.95469 2.8875 9.74531C2.3375 10.5359 2.0625 11.4125 2.0625 12.375C2.0625 13.7042 2.53229 14.8385 3.47188 15.7781C4.41146 16.7177 5.54583 17.1875 6.875 17.1875Z" fill="white"/>
</svg>
