<svg width="30" height="30" viewBox="0 0 30 30" fill="none" xmlns="http://www.w3.org/2000/svg">
<path d="M6.5 16.5C6.08333 16.5 5.72917 16.3542 5.4375 16.0625C5.14583 15.7708 5 15.4167 5 15C5 14.5833 5.14583 14.2292 5.4375 13.9375C5.72917 13.6458 6.08333 13.5 6.5 13.5C6.91667 13.5 7.27083 13.6458 7.5625 13.9375C7.85417 14.2292 8 14.5833 8 15C8 15.4167 7.85417 15.7708 7.5625 16.0625C7.27083 16.3542 6.91667 16.5 6.5 16.5ZM15 16.5C14.5833 16.5 14.2292 16.3542 13.9375 16.0625C13.6458 15.7708 13.5 15.4167 13.5 15C13.5 14.5833 13.6458 14.2292 13.9375 13.9375C14.2292 13.6458 14.5833 13.5 15 13.5C15.4167 13.5 15.7708 13.6458 16.0625 13.9375C16.3542 14.2292 16.5 14.5833 16.5 15C16.5 15.4167 16.3542 15.7708 16.0625 16.0625C15.7708 16.3542 15.4167 16.5 15 16.5ZM23.5 16.5C23.0833 16.5 22.7292 16.3542 22.4375 16.0625C22.1458 15.7708 22 15.4167 22 15C22 14.5833 22.1458 14.2292 22.4375 13.9375C22.7292 13.6458 23.0833 13.5 23.5 13.5C23.9167 13.5 24.2708 13.6458 24.5625 13.9375C24.8542 14.2292 25 14.5833 25 15C25 15.4167 24.8542 15.7708 24.5625 16.0625C24.2708 16.3542 23.9167 16.5 23.5 16.5Z" fill="#747474"/>
</svg>
