<svg width="20" height="22" viewBox="0 0 20 22" fill="none" xmlns="http://www.w3.org/2000/svg">
<path d="M18.7222 22L11.4167 14.2378L12.6944 12.8802L20 20.6424L18.7222 22ZM2.88889 20.6424C1.90741 19.5012 1.18056 18.237 0.708333 16.8498C0.236111 15.4627 0 14.0509 0 12.6146C0 11.0799 0.268518 9.58449 0.805555 8.12847C1.34259 6.67245 2.15741 5.364 3.25 4.20312C4.34259 3.04225 5.5787 2.1765 6.95833 1.6059C8.33796 1.0353 9.75 0.75 11.1944 0.75C12.5463 0.75 13.875 1.00087 15.1806 1.5026C16.4861 2.00434 17.6667 2.77662 18.7222 3.81944L2.88889 20.6424ZM2.97222 18.0156L4.88889 15.9497C4.59259 15.5168 4.2963 15.0495 4 14.5477C3.7037 14.046 3.43056 13.5148 3.18056 12.954C2.93056 12.3932 2.72222 11.8128 2.55556 11.2127C2.38889 10.6126 2.27778 9.99769 2.22222 9.36806C1.72222 10.8241 1.55093 12.3096 1.70833 13.8247C1.86574 15.3397 2.28704 16.7367 2.97222 18.0156ZM6.22222 14.6215L13.0556 7.30208C12.2037 6.59375 11.338 6.03791 10.4583 5.63455C9.5787 5.23119 8.74074 4.96557 7.94444 4.83767C7.14815 4.70978 6.43982 4.70978 5.81945 4.83767C5.19907 4.96557 4.72222 5.2066 4.38889 5.56076C4.05556 5.91493 3.84259 6.42159 3.75 7.08073C3.65741 7.73987 3.68056 8.47772 3.81944 9.29427C3.95833 10.1108 4.22685 10.9766 4.625 11.8915C5.02315 12.8064 5.55556 13.7164 6.22222 14.6215ZM14.3056 5.94444L16.3056 3.90799C15.0833 3.0816 13.7546 2.59954 12.3194 2.46181C10.8843 2.32407 9.48148 2.54051 8.11111 3.11111C8.66667 3.17014 9.21759 3.28819 9.76389 3.46528C10.3102 3.64236 10.8472 3.85388 11.375 4.09983C11.9028 4.34578 12.412 4.62616 12.9028 4.94097C13.3935 5.25579 13.8611 5.59028 14.3056 5.94444Z" fill="white"/>
</svg>
