<svg width="26" height="26" viewBox="0 0 26 26" fill="none" xmlns="http://www.w3.org/2000/svg">
<path d="M13 25.4688C11.5 25.3021 10.0052 24.8698 8.51562 24.1719C7.02604 23.474 5.6875 22.5052 4.5 21.2656C3.3125 20.026 2.34896 18.4948 1.60938 16.6719C0.869792 14.849 0.5 12.7292 0.5 10.3125V9.125H1.6875C2.79167 9.125 3.96875 9.33854 5.21875 9.76562C6.46875 10.1927 7.57292 10.7396 8.53125 11.4062C8.69792 9.53125 9.19792 7.59896 10.0312 5.60938C10.8646 3.61979 11.8542 1.91667 13 0.5C14.1458 1.91667 15.1354 3.61979 15.9688 5.60938C16.8021 7.59896 17.3021 9.53125 17.4688 11.4062C18.4271 10.7812 19.5312 10.2448 20.7812 9.79687C22.0312 9.34896 23.2083 9.125 24.3125 9.125H25.5V10.3125C25.5 12.7292 25.1302 14.849 24.3906 16.6719C23.651 18.4948 22.6875 20.026 21.5 21.2656C20.3125 22.5052 18.974 23.474 17.4844 24.1719C15.9948 24.8698 14.5 25.3021 13 25.4688ZM13.25 23.5625C13.0208 19.6875 11.901 16.75 9.89062 14.75C7.88021 12.75 5.38542 11.5104 2.40625 11.0312C2.67708 15.0521 3.84896 18.0521 5.92188 20.0312C7.99479 22.0104 10.4375 23.1875 13.25 23.5625ZM12.9688 15.9063C13.2604 15.3646 13.6615 14.7812 14.1719 14.1562C14.6823 13.5312 15.1771 13.0104 15.6562 12.5937C15.7604 11.1771 15.5521 9.73958 15.0312 8.28125C14.5104 6.82292 13.8333 5.3125 13 3.75C12.1667 5.3125 11.4896 6.82292 10.9688 8.28125C10.4479 9.73958 10.2396 11.1771 10.3438 12.5937C10.8229 13.0104 11.3073 13.5312 11.7969 14.1562C12.2865 14.7812 12.6771 15.3646 12.9688 15.9063ZM15.125 23.0312C16.1042 22.6771 17.0781 22.2083 18.0469 21.625C19.0156 21.0417 19.8906 20.2812 20.6719 19.3438C21.4531 18.4062 22.1094 17.2552 22.6406 15.8906C23.1719 14.526 23.4896 12.9062 23.5938 11.0312C21.3854 11.3854 19.4375 12.1719 17.75 13.3906C16.0625 14.6094 14.8229 16.1146 14.0312 17.9062C14.2812 18.6979 14.5 19.4948 14.6875 20.2969C14.875 21.099 15.0208 22.0104 15.125 23.0312Z" fill="white"/>
</svg>
